<?xml version="1.0" encoding="UTF-8" standalone="no"?>
<!-- Created with Inkscape (http://www.inkscape.org/) -->

<svg
   xmlns:dc="http://purl.org/dc/elements/1.1/"
   xmlns:cc="http://creativecommons.org/ns#"
   xmlns:rdf="http://www.w3.org/1999/02/22-rdf-syntax-ns#"
   xmlns:svg="http://www.w3.org/2000/svg"
   xmlns="http://www.w3.org/2000/svg"
   xmlns:sodipodi="http://sodipodi.sourceforge.net/DTD/sodipodi-0.dtd"
   xmlns:inkscape="http://www.inkscape.org/namespaces/inkscape"
   width="401.37689mm"
   height="220.82059mm"
   viewBox="0 0 1422.2016 782.43515"
   id="svg2"
   version="1.1"
   inkscape:version="0.91 r13725"
   sodipodi:docname="reorg_mol.svg">
  <sodipodi:namedview
     id="base"
     pagecolor="#ffffff"
     bordercolor="#666666"
     borderopacity="1.0"
     inkscape:pageopacity="0.0"
     inkscape:pageshadow="2"
     inkscape:zoom="0.7"
     inkscape:cx="418.89267"
     inkscape:cy="450.64865"
     inkscape:document-units="px"
     inkscape:current-layer="layer1"
     showgrid="false"
     inkscape:window-width="1920"
     inkscape:window-height="1031"
     inkscape:window-x="0"
     inkscape:window-y="25"
     inkscape:window-maximized="1"
     showguides="true"
     inkscape:guide-bbox="true"
     fit-margin-top="0"
     fit-margin-left="0"
     fit-margin-right="0"
     fit-margin-bottom="0">
    <inkscape:grid
       id="grid4635"
       type="xygrid"
       originx="2098.3203"
       originy="-63.665928" />
  </sodipodi:namedview>
  <defs
     id="defs4">
    <marker
       inkscape:stockid="TriangleOutM"
       orient="auto"
       refY="0"
       refX="0"
       id="marker13209"
       style="overflow:visible"
       inkscape:isstock="true">
      <path
         id="path13211"
         d="m 5.77,0 -8.65,5 0,-10 8.65,5 z"
         style="fill:#008000;fill-opacity:1;fill-rule:evenodd;stroke:#008000;stroke-width:1pt;stroke-opacity:1"
         transform="scale(0.4,0.4)"
         inkscape:connector-curvature="0" />
    </marker>
    <marker
       inkscape:stockid="TriangleInM"
       orient="auto"
       refY="0"
       refX="0"
       id="marker13149"
       style="overflow:visible"
       inkscape:isstock="true">
      <path
         id="path13151"
         d="m 5.77,0 -8.65,5 0,-10 8.65,5 z"
         style="fill:#008000;fill-opacity:1;fill-rule:evenodd;stroke:#008000;stroke-width:1pt;stroke-opacity:1"
         transform="scale(-0.4,-0.4)"
         inkscape:connector-curvature="0" />
    </marker>
    <marker
       inkscape:stockid="TriangleInM"
       orient="auto"
       refY="0"
       refX="0"
       id="marker13085"
       style="overflow:visible"
       inkscape:isstock="true">
      <path
         id="path13087"
         d="m 5.77,0 -8.65,5 0,-10 8.65,5 z"
         style="fill:#aa0000;fill-opacity:1;fill-rule:evenodd;stroke:#aa0000;stroke-width:1pt;stroke-opacity:1"
         transform="scale(-0.4,-0.4)"
         inkscape:connector-curvature="0" />
    </marker>
    <marker
       inkscape:stockid="Arrow2Mstart"
       orient="auto"
       refY="0"
       refX="0"
       id="marker13029"
       style="overflow:visible"
       inkscape:isstock="true">
      <path
         id="path13031"
         style="fill:#aa0000;fill-opacity:1;fill-rule:evenodd;stroke:#aa0000;stroke-width:0.625;stroke-linejoin:round;stroke-opacity:1"
         d="M 8.7185878,4.0337352 -2.2072895,0.01601326 8.7185884,-4.0017078 c -1.7454984,2.3720609 -1.7354408,5.6174519 -6e-7,8.035443 z"
         transform="scale(0.6,0.6)"
         inkscape:connector-curvature="0" />
    </marker>
    <marker
       inkscape:stockid="TriangleInM"
       orient="auto"
       refY="0"
       refX="0"
       id="marker12975"
       style="overflow:visible"
       inkscape:isstock="true">
      <path
         id="path12977"
         d="m 5.77,0 -8.65,5 0,-10 8.65,5 z"
         style="fill:#000080;fill-opacity:1;fill-rule:evenodd;stroke:#000080;stroke-width:1pt;stroke-opacity:1"
         transform="scale(-0.4,-0.4)"
         inkscape:connector-curvature="0" />
    </marker>
    <marker
       inkscape:stockid="Arrow2Lstart"
       orient="auto"
       refY="0"
       refX="0"
       id="marker12929"
       style="overflow:visible"
       inkscape:isstock="true">
      <path
         id="path12931"
         style="fill:#000080;fill-opacity:1;fill-rule:evenodd;stroke:#000080;stroke-width:0.625;stroke-linejoin:round;stroke-opacity:1"
         d="M 8.7185878,4.0337352 -2.2072895,0.01601326 8.7185884,-4.0017078 c -1.7454984,2.3720609 -1.7354408,5.6174519 -6e-7,8.035443 z"
         transform="matrix(1.1,0,0,1.1,1.1,0)"
         inkscape:connector-curvature="0" />
    </marker>
    <marker
       inkscape:stockid="Arrow2Mend"
       orient="auto"
       refY="0"
       refX="0"
       id="Arrow2Mend"
       style="overflow:visible"
       inkscape:isstock="true">
      <path
         id="path4247"
         style="fill:#008000;fill-opacity:1;fill-rule:evenodd;stroke:#008000;stroke-width:0.625;stroke-linejoin:round;stroke-opacity:1"
         d="M 8.7185878,4.0337352 -2.2072895,0.01601326 8.7185884,-4.0017078 c -1.7454984,2.3720609 -1.7354408,5.6174519 -6e-7,8.035443 z"
         transform="scale(-0.6,-0.6)"
         inkscape:connector-curvature="0" />
    </marker>
    <marker
       inkscape:stockid="Arrow2Lend"
       orient="auto"
       refY="0"
       refX="0"
       id="Arrow2Lend"
       style="overflow:visible"
       inkscape:isstock="true">
      <path
         id="path4241"
         style="fill:#aa0000;fill-opacity:1;fill-rule:evenodd;stroke:#aa0000;stroke-width:0.625;stroke-linejoin:round;stroke-opacity:1"
         d="M 8.7185878,4.0337352 -2.2072895,0.01601326 8.7185884,-4.0017078 c -1.7454984,2.3720609 -1.7354408,5.6174519 -6e-7,8.035443 z"
         transform="matrix(-1.1,0,0,-1.1,-1.1,0)"
         inkscape:connector-curvature="0" />
    </marker>
    <marker
       inkscape:stockid="Arrow2Mstart"
       orient="auto"
       refY="0"
       refX="0"
       id="marker10433"
       style="overflow:visible"
       inkscape:isstock="true">
      <path
         id="path10435"
         style="fill:#000080;fill-opacity:1;fill-rule:evenodd;stroke:#000080;stroke-width:0.625;stroke-linejoin:round;stroke-opacity:1"
         d="M 8.7185878,4.0337352 -2.2072895,0.01601326 8.7185884,-4.0017078 c -1.7454984,2.3720609 -1.7354408,5.6174519 -6e-7,8.035443 z"
         transform="scale(0.6,0.6)"
         inkscape:connector-curvature="0" />
    </marker>
    <marker
       inkscape:stockid="Arrow2Lstart"
       orient="auto"
       refY="0"
       refX="0"
       id="marker10399"
       style="overflow:visible"
       inkscape:isstock="true">
      <path
         id="path10401"
         style="fill:#000080;fill-opacity:1;fill-rule:evenodd;stroke:#000080;stroke-width:0.625;stroke-linejoin:round;stroke-opacity:1"
         d="M 8.7185878,4.0337352 -2.2072895,0.01601326 8.7185884,-4.0017078 c -1.7454984,2.3720609 -1.7354408,5.6174519 -6e-7,8.035443 z"
         transform="matrix(1.1,0,0,1.1,1.1,0)"
         inkscape:connector-curvature="0" />
    </marker>
    <marker
       inkscape:stockid="Arrow2Mstart"
       orient="auto"
       refY="0"
       refX="0"
       id="marker9677"
       style="overflow:visible"
       inkscape:isstock="true">
      <path
         id="path9679"
         style="fill:#000080;fill-opacity:1;fill-rule:evenodd;stroke:#000080;stroke-width:0.625;stroke-linejoin:round;stroke-opacity:1"
         d="M 8.7185878,4.0337352 -2.2072895,0.01601326 8.7185884,-4.0017078 c -1.7454984,2.3720609 -1.7354408,5.6174519 -6e-7,8.035443 z"
         transform="scale(0.6,0.6)"
         inkscape:connector-curvature="0" />
    </marker>
    <marker
       inkscape:stockid="Arrow2Sstart"
       orient="auto"
       refY="0"
       refX="0"
       id="Arrow2Sstart"
       style="overflow:visible"
       inkscape:isstock="true">
      <path
         id="path4250"
         style="fill:#000080;fill-opacity:1;fill-rule:evenodd;stroke:#000080;stroke-width:0.625;stroke-linejoin:round;stroke-opacity:1"
         d="M 8.7185878,4.0337352 -2.2072895,0.01601326 8.7185884,-4.0017078 c -1.7454984,2.3720609 -1.7354408,5.6174519 -6e-7,8.035443 z"
         transform="matrix(0.3,0,0,0.3,-0.69,0)"
         inkscape:connector-curvature="0" />
    </marker>
    <marker
       inkscape:stockid="Arrow2Mstart"
       orient="auto"
       refY="0"
       refX="0"
       id="Arrow2Mstart"
       style="overflow:visible"
       inkscape:isstock="true">
      <path
         id="path4244"
         style="fill:#000080;fill-opacity:1;fill-rule:evenodd;stroke:#000080;stroke-width:0.625;stroke-linejoin:round;stroke-opacity:1"
         d="M 8.7185878,4.0337352 -2.2072895,0.01601326 8.7185884,-4.0017078 c -1.7454984,2.3720609 -1.7354408,5.6174519 -6e-7,8.035443 z"
         transform="scale(0.6,0.6)"
         inkscape:connector-curvature="0" />
    </marker>
    <marker
       inkscape:stockid="Arrow1Lstart"
       orient="auto"
       refY="0"
       refX="0"
       id="Arrow1Lstart"
       style="overflow:visible"
       inkscape:isstock="true">
      <path
         id="path4220"
         d="M 0,0 5,-5 -12.5,0 5,5 0,0 Z"
         style="fill:#000080;fill-opacity:1;fill-rule:evenodd;stroke:#000080;stroke-width:1pt;stroke-opacity:1"
         transform="matrix(0.8,0,0,0.8,10,0)"
         inkscape:connector-curvature="0" />
    </marker>
    <marker
       inkscape:isstock="true"
       style="overflow:visible"
       id="TriangleInM"
       refX="0"
       refY="0"
       orient="auto"
       inkscape:stockid="TriangleInM">
      <path
         transform="scale(-0.4,-0.4)"
         style="fill:#000000;fill-opacity:1;fill-rule:evenodd;stroke:#000000;stroke-width:1pt;stroke-opacity:1"
         d="m 5.77,0 -8.65,5 0,-10 8.65,5 z"
         id="path4356"
         inkscape:connector-curvature="0" />
    </marker>
    <marker
       inkscape:isstock="true"
       style="overflow:visible"
       id="TriangleOutM"
       refX="0"
       refY="0"
       orient="auto"
       inkscape:stockid="TriangleOutM">
      <path
         transform="scale(0.4,0.4)"
         style="fill:#000000;fill-opacity:1;fill-rule:evenodd;stroke:#000000;stroke-width:1pt;stroke-opacity:1"
         d="m 5.77,0 -8.65,5 0,-10 8.65,5 z"
         id="path4365"
         inkscape:connector-curvature="0" />
    </marker>
    <marker
       inkscape:isstock="true"
       style="overflow:visible"
       id="TriangleInL"
       refX="0"
       refY="0"
       orient="auto"
       inkscape:stockid="TriangleInL">
      <path
         transform="scale(-0.8,-0.8)"
         style="fill:#000000;fill-opacity:1;fill-rule:evenodd;stroke:#000000;stroke-width:1pt;stroke-opacity:1"
         d="m 5.77,0 -8.65,5 0,-10 8.65,5 z"
         id="path4353"
         inkscape:connector-curvature="0" />
    </marker>
    <marker
       inkscape:isstock="true"
       style="overflow:visible"
       id="Arrow2Lstart"
       refX="0"
       refY="0"
       orient="auto"
       inkscape:stockid="Arrow2Lstart">
      <path
         transform="matrix(1.1,0,0,1.1,1.1,0)"
         d="M 8.7185878,4.0337352 -2.2072895,0.01601326 8.7185884,-4.0017078 c -1.7454984,2.3720609 -1.7354408,5.6174519 -6e-7,8.035443 z"
         style="fill:#000080;fill-opacity:1;fill-rule:evenodd;stroke:#000080;stroke-width:0.625;stroke-linejoin:round;stroke-opacity:1"
         id="path4238"
         inkscape:connector-curvature="0" />
    </marker>
    <marker
       inkscape:stockid="Arrow2Mstart"
       orient="auto"
       refY="0"
       refX="0"
       id="marker10433-6"
       style="overflow:visible"
       inkscape:isstock="true">
      <path
         inkscape:connector-curvature="0"
         id="path10435-7"
         style="fill:#aa0000;fill-opacity:1;fill-rule:evenodd;stroke:#aa0000;stroke-width:0.625;stroke-linejoin:round;stroke-opacity:1"
         d="M 8.7185878,4.0337352 -2.2072895,0.01601326 8.7185884,-4.0017078 c -1.7454984,2.3720609 -1.7354408,5.6174519 -6e-7,8.035443 z"
         transform="scale(0.6,0.6)" />
    </marker>
    <marker
       inkscape:stockid="Arrow2Mstart"
       orient="auto"
       refY="0"
       refX="0"
       id="marker10433-6-3"
       style="overflow:visible"
       inkscape:isstock="true">
      <path
         inkscape:connector-curvature="0"
         id="path10435-7-5"
         style="fill:#008000;fill-opacity:1;fill-rule:evenodd;stroke:#008000;stroke-width:0.625;stroke-linejoin:round;stroke-opacity:1"
         d="M 8.7185878,4.0337352 -2.2072895,0.01601326 8.7185884,-4.0017078 c -1.7454984,2.3720609 -1.7354408,5.6174519 -6e-7,8.035443 z"
         transform="scale(0.6,0.6)" />
    </marker>
    <marker
       inkscape:stockid="TriangleInM"
       orient="auto"
       refY="0"
       refX="0"
       id="marker13149-1"
       style="overflow:visible"
       inkscape:isstock="true">
      <path
         inkscape:connector-curvature="0"
         id="path13151-2"
         d="m 5.77,0 -8.65,5 0,-10 8.65,5 z"
         style="fill:#000000;fill-opacity:1;fill-rule:evenodd;stroke:#000000;stroke-width:1pt;stroke-opacity:1"
         transform="scale(-0.4,-0.4)" />
    </marker>
    <marker
       inkscape:stockid="TriangleOutM"
       orient="auto"
       refY="0"
       refX="0"
       id="marker13209-7"
       style="overflow:visible"
       inkscape:isstock="true">
      <path
         inkscape:connector-curvature="0"
         id="path13211-0"
         d="m 5.77,0 -8.65,5 0,-10 8.65,5 z"
         style="fill:#000000;fill-opacity:1;fill-rule:evenodd;stroke:#000000;stroke-width:1pt;stroke-opacity:1"
         transform="scale(0.4,0.4)" />
    </marker>
    <marker
       inkscape:stockid="TriangleInM"
       orient="auto"
       refY="0"
       refX="0"
       id="marker13149-1-3"
       style="overflow:visible"
       inkscape:isstock="true">
      <path
         inkscape:connector-curvature="0"
         id="path13151-2-6"
         d="m 5.77,0 -8.65,5 0,-10 8.65,5 z"
         style="fill:#000000;fill-opacity:1;fill-rule:evenodd;stroke:#000000;stroke-width:1pt;stroke-opacity:1"
         transform="scale(-0.4,-0.4)" />
    </marker>
    <marker
       inkscape:stockid="TriangleOutM"
       orient="auto"
       refY="0"
       refX="0"
       id="marker13209-7-0"
       style="overflow:visible"
       inkscape:isstock="true">
      <path
         inkscape:connector-curvature="0"
         id="path13211-0-6"
         d="m 5.77,0 -8.65,5 0,-10 8.65,5 z"
         style="fill:#000000;fill-opacity:1;fill-rule:evenodd;stroke:#000000;stroke-width:1pt;stroke-opacity:1"
         transform="scale(0.4,0.4)" />
    </marker>
  </defs>
  <metadata
     id="metadata7">
    <rdf:RDF>
      <cc:Work
         rdf:about="">
        <dc:format>image/svg+xml</dc:format>
        <dc:type
           rdf:resource="http://purl.org/dc/dcmitype/StillImage" />
        <dc:title />
      </cc:Work>
    </rdf:RDF>
  </metadata>
  <g
     inkscape:label="Layer 1"
     inkscape:groupmode="layer"
     id="layer1"
     transform="translate(2098.3202,-206.26109)">
    <path
       sodipodi:nodetypes="czc"
       inkscape:connector-curvature="0"
       id="path4188"
       d="m -1670.3687,246.36998 c 28.2116,156.47093 121.2001,326.9268 291.365,328.85465 170.1648,1.92785 282.3953,-163.02525 612.19178,-191.67042"
       style="opacity:1;fill:none;fill-opacity:1;stroke:#4d4d4d;stroke-width:4.80068111;stroke-linecap:round;stroke-linejoin:miter;stroke-miterlimit:4;stroke-dasharray:none;stroke-dashoffset:0;stroke-opacity:1" />
    <path
       sodipodi:nodetypes="czc"
       inkscape:connector-curvature="0"
       id="path4188-3"
       d="m -1942.1204,326.84793 c -1.301,124.55892 120.5805,533.38046 319.3754,532.8836 198.7949,-0.49686 354.9264,-221.87474 854.4989,-257.96392"
       style="opacity:1;fill:none;fill-opacity:1;stroke:#4d4d4d;stroke-width:4.80068111;stroke-linecap:round;stroke-linejoin:miter;stroke-miterlimit:4;stroke-dasharray:none;stroke-dashoffset:0;stroke-opacity:1" />
    <path
       sodipodi:nodetypes="ccc"
       inkscape:connector-curvature="0"
       id="path4212"
       d="m -1968.6967,216.37141 0,709.83034 1282.46769,0"
       style="fill:none;fill-rule:evenodd;stroke:#000000;stroke-width:3.60111094;stroke-linecap:butt;stroke-linejoin:miter;stroke-miterlimit:4;stroke-dasharray:none;stroke-opacity:1;marker-start:url(#TriangleInM);marker-end:url(#TriangleOutM)" />
    <g
       transform="translate(-1025.9901,624.41641)"
       id="g5119">
      <g
         style="font-style:normal;font-variant:normal;font-weight:normal;font-stretch:normal;letter-spacing:normal;word-spacing:normal;text-anchor:start;fill:none;fill-opacity:1;fill-rule:evenodd;stroke:#000000;stroke-linecap:butt;stroke-linejoin:miter;stroke-miterlimit:10.43299961;stroke-dasharray:none;stroke-dashoffset:0;stroke-opacity:1"
         id="g5121"
         transform="matrix(1.0629921,0,0,-1.0629921,-186.02362,789.27165)"
         xml:space="preserve"
         stroke-miterlimit="10.433"
         font-style="normal"
         font-variant="normal"
         font-weight="normal"
         font-stretch="normal"
         font-size-adjust="none"
         letter-spacing="normal"
         word-spacing="normal"><path
           style="fill:#000000;stroke-width:0"
           inkscape:connector-curvature="0"
           d="m 481.85,422.94 0.48,0.11 0.47,0.12 0.49,0.14 0.48,0.15 0.48,0.16 0.48,0.18 0.48,0.19 0.48,0.2 0.47,0.22 0.46,0.23 0.46,0.24 0.45,0.25 0.44,0.27 0.43,0.28 0.42,0.29 0.4,0.3 0.39,0.31 0.37,0.32 0.35,0.34 0.34,0.35 0.32,0.35 0.29,0.37 0.28,0.38 0.25,0.39 0.22,0.4 0.2,0.41 0.17,0.42 0.15,0.43 0.11,0.44 0.09,0.45 0.05,0.45 0.01,0.47 c 0,4.29 -4.48,7.47 -11.01,7.47 l -14.19,0 c -1,0 -1.45,0 -1.45,-0.99 0,-0.55 0.45,-0.55 1.4,-0.55 0.1,0 1.04,0 1.89,-0.1 0.9,-0.1 1.34,-0.15 1.34,-0.8 0,-0.2 -0.04,-0.35 -0.2,-0.94 l -6.67,-26.75 c -0.5,-1.95 -0.6,-2.35 -4.53,-2.35 -0.9,0 -1.35,0 -1.35,-0.99 0,-0.55 0.6,-0.55 0.7,-0.55 l 12.6,0 c 0.4,0 1,0 1,1 0,0.54 -0.45,0.54 -1.39,0.54 -1.85,0 -3.24,0 -3.24,0.9 0,0.3 0.09,0.55 0.15,0.85 l 3.28,13.2 5.93,0 -0.05,1.1 -5.58,0 3.24,13 c 0.3,1.19 0.45,1.69 1.39,1.84 0.45,0.05 2.05,0.05 3.04,0.05 3.54,0 9.07,0 9.07,-4.93 0,-1.7 -0.8,-5.14 -2.74,-7.08 -1.3,-1.29 -3.94,-2.88 -8.42,-2.88 l 0.05,-1.1 c 4.54,0 5.43,-2.79 5.43,-4.53 0,-0.75 -0.4,-2.3 -0.7,-3.44 -0.35,-1.4 -0.79,-3.24 -0.79,-4.23 0,-5.39 5.97,-5.39 6.62,-5.39 4.24,0 5.98,5.03 5.98,5.73 0,0.6 -0.55,0.6 -0.6,0.6 -0.45,0 -0.55,-0.35 -0.65,-0.7 -1.24,-3.68 -3.38,-4.53 -4.53,-4.53 -1.64,0 -1.99,1.1 -1.99,3.04 0,1.54 0.3,4.08 0.5,5.68 0.1,0.69 0.2,1.64 0.2,2.34 0,3.83 -3.34,5.38 -4.69,5.88 z"
           id="path5123" /></g>    </g>
    <g
       id="g9285"
       transform="translate(-2400.5714,-97.42857)">
      <g
         word-spacing="normal"
         letter-spacing="normal"
         font-size-adjust="none"
         font-stretch="normal"
         font-weight="normal"
         font-variant="normal"
         font-style="normal"
         stroke-miterlimit="10.433"
         xml:space="preserve"
         transform="matrix(1.0629921,0,0,-1.0629921,-186.02362,789.27165)"
         id="g9287"
         style="font-style:normal;font-variant:normal;font-weight:normal;font-stretch:normal;letter-spacing:normal;word-spacing:normal;text-anchor:start;fill:none;fill-opacity:1;fill-rule:evenodd;stroke:#000000;stroke-linecap:butt;stroke-linejoin:miter;stroke-miterlimit:10.43299961;stroke-dasharray:none;stroke-dashoffset:0;stroke-opacity:1"><path
           id="path9289"
           d="m 487.63,434.79 0.1,0.38 0.06,0.18 0.05,0.18 0.07,0.18 0.06,0.17 0.07,0.17 0.08,0.16 0.09,0.16 0.09,0.15 0.1,0.15 0.1,0.15 0.12,0.14 0.12,0.13 0.13,0.13 0.14,0.13 0.16,0.11 0.16,0.12 0.17,0.1 0.19,0.1 0.2,0.1 0.21,0.09 0.22,0.08 0.24,0.08 0.25,0.06 0.27,0.07 0.28,0.05 0.3,0.05 0.31,0.04 0.33,0.03 0.35,0.03 0.18,0.01 0.18,0.01 c 0.25,0 0.85,0.05 0.85,0.99 0,0.05 0,0.55 -0.65,0.55 l -10.26,0 c -0.3,0 -0.9,0 -0.9,-0.99 0,-0.55 0.5,-0.55 0.9,-0.55 2.84,-0.05 3.39,-1.1 3.39,-2.19 0,-0.15 -0.1,-0.9 -0.15,-1.05 l -4.49,-17.78 c -1.69,-6.68 -7.42,-11.01 -12.4,-11.01 -3.39,0 -6.08,2.19 -6.08,6.48 0,0.09 0,1.69 0.55,3.88 l 4.83,19.38 c 0.45,1.79 0.55,2.29 4.19,2.29 1.29,0 1.69,0 1.69,0.99 0,0.55 -0.55,0.55 -0.69,0.55 l -12.81,0 c -0.4,0 -0.94,0 -0.94,-0.99 0,-0.55 0.44,-0.55 1.39,-0.55 0.1,0 1.05,0 1.89,-0.1 0.9,-0.1 1.35,-0.15 1.35,-0.8 0,-0.3 -0.55,-2.39 -0.85,-3.54 l -1.09,-4.38 c -0.45,-1.94 -2.84,-11.36 -3.04,-12.3 -0.35,-1.4 -0.35,-2.15 -0.35,-2.89 0,-6.08 4.53,-9.57 9.76,-9.57 6.28,0 12.45,5.63 14.1,12.21 z"
           inkscape:connector-curvature="0"
           style="fill:#000000;stroke-width:0" /><path
           id="path9291"
           d="m 511.49,394.04 0,0.03 0,0.03 -0.01,0.01 0,0.02 0,0.01 -0.01,0.02 0,0.02 -0.01,0.01 -0.01,0.02 -0.01,0.02 -0.01,0.03 -0.01,0.02 -0.02,0.02 -0.02,0.03 -0.02,0.03 -0.02,0.03 -0.03,0.03 -0.03,0.04 -0.01,0.02 -0.02,0.02 -0.02,0.02 -0.02,0.02 -0.02,0.02 -0.02,0.03 -0.02,0.02 -0.02,0.02 -0.02,0.03 -0.03,0.02 -0.02,0.03 -0.03,0.03 -0.02,0.03 -0.03,0.03 -0.03,0.03 -0.03,0.03 -0.03,0.03 -0.03,0.03 -0.04,0.04 -0.03,0.03 -0.04,0.04 -0.03,0.03 -0.04,0.04 -0.04,0.04 c -6.23,6.28 -7.82,15.69 -7.82,23.31 0,8.67 1.89,17.34 8.02,23.57 0.65,0.59 0.65,0.69 0.65,0.84 0,0.35 -0.2,0.5 -0.5,0.5 -0.5,0 -4.98,-3.39 -7.92,-9.72 -2.54,-5.47 -3.14,-11 -3.14,-15.19 0,-3.88 0.55,-9.91 3.29,-15.54 2.99,-6.12 7.27,-9.36 7.77,-9.36 0.3,0 0.5,0.15 0.5,0.49 z"
           inkscape:connector-curvature="0"
           style="fill:#000000;stroke-width:0" /><path
           id="path9293"
           d="m 539.85,422.94 0.48,0.11 0.47,0.12 0.49,0.14 0.48,0.15 0.48,0.16 0.48,0.18 0.48,0.19 0.48,0.2 0.47,0.22 0.46,0.23 0.46,0.24 0.45,0.25 0.44,0.27 0.43,0.28 0.42,0.29 0.4,0.3 0.39,0.31 0.37,0.32 0.35,0.34 0.34,0.35 0.32,0.35 0.29,0.37 0.28,0.38 0.25,0.39 0.22,0.4 0.2,0.41 0.17,0.42 0.15,0.43 0.11,0.44 0.09,0.45 0.05,0.45 0.01,0.47 c 0,4.29 -4.48,7.47 -11.01,7.47 l -14.2,0 c -0.99,0 -1.44,0 -1.44,-0.99 0,-0.55 0.45,-0.55 1.4,-0.55 0.1,0 1.04,0 1.89,-0.1 0.9,-0.1 1.34,-0.15 1.34,-0.8 0,-0.2 -0.04,-0.35 -0.2,-0.94 l -6.67,-26.75 c -0.5,-1.95 -0.6,-2.35 -4.53,-2.35 -0.9,0 -1.35,0 -1.35,-0.99 0,-0.55 0.6,-0.55 0.7,-0.55 l 12.6,0 c 0.4,0 1,0 1,1 0,0.54 -0.45,0.54 -1.39,0.54 -1.85,0 -3.24,0 -3.24,0.9 0,0.3 0.09,0.55 0.14,0.85 l 3.3,13.2 5.92,0 -0.05,1.1 -5.58,0 3.24,13 c 0.3,1.19 0.45,1.69 1.39,1.84 0.45,0.05 2.05,0.05 3.04,0.05 3.54,0 9.07,0 9.07,-4.93 0,-1.7 -0.8,-5.14 -2.74,-7.08 -1.29,-1.29 -3.94,-2.88 -8.42,-2.88 l 0.05,-1.1 c 4.53,0 5.43,-2.79 5.43,-4.53 0,-0.75 -0.4,-2.3 -0.7,-3.44 -0.35,-1.4 -0.79,-3.24 -0.79,-4.23 0,-5.39 5.97,-5.39 6.62,-5.39 4.24,0 5.98,5.03 5.98,5.73 0,0.6 -0.55,0.6 -0.6,0.6 -0.45,0 -0.54,-0.35 -0.65,-0.7 -1.24,-3.68 -3.38,-4.53 -4.53,-4.53 -1.64,0 -1.99,1.1 -1.99,3.04 0,1.54 0.3,4.08 0.5,5.68 0.1,0.69 0.19,1.64 0.19,2.34 0,3.83 -3.33,5.38 -4.68,5.88 z"
           inkscape:connector-curvature="0"
           style="fill:#000000;stroke-width:0" /><path
           id="path9295"
           d="m 566.4,418.45 -0.01,0.37 0,0.39 -0.01,0.39 -0.01,0.41 -0.04,0.84 -0.06,0.88 -0.09,0.92 -0.1,0.94 -0.14,0.98 -0.16,1 -0.2,1.02 -0.23,1.04 -0.27,1.05 -0.3,1.06 -0.35,1.06 -0.39,1.07 -0.22,0.53 -0.22,0.54 -0.24,0.53 -0.25,0.53 c -2.99,6.12 -7.27,9.36 -7.77,9.36 -0.3,0 -0.5,-0.2 -0.5,-0.5 0,-0.15 0,-0.25 0.94,-1.15 4.89,-4.92 7.73,-12.85 7.73,-23.26 0,-8.52 -1.85,-17.28 -8.02,-23.56 -0.65,-0.6 -0.65,-0.69 -0.65,-0.85 0,-0.29 0.2,-0.49 0.5,-0.49 0.5,0 4.98,3.38 7.92,9.71 2.54,5.48 3.14,11.01 3.14,15.19 z"
           inkscape:connector-curvature="0"
           style="fill:#000000;stroke-width:0" /></g>    </g>
    <g
       id="g9350"
       transform="translate(-1602.4285,482.14285)">
      <g
         id="content"
         transform="matrix(1.0629921,0,0,-1.0629921,-186.02362,789.27165)"
         xml:space="preserve"
         stroke-miterlimit="10.433"
         font-style="normal"
         font-variant="normal"
         font-weight="normal"
         font-stretch="normal"
         font-size-adjust="none"
         letter-spacing="normal"
         word-spacing="normal"
         style="font-style:normal;font-variant:normal;font-weight:normal;font-stretch:normal;letter-spacing:normal;word-spacing:normal;text-anchor:start;fill:none;fill-opacity:1;fill-rule:evenodd;stroke:#000000;stroke-linecap:butt;stroke-linejoin:miter;stroke-miterlimit:10.43299961;stroke-dasharray:none;stroke-dashoffset:0;stroke-opacity:1"><path
           d="m 473.79,420.55 0.19,-0.5 0.19,-0.51 0.39,-1.05 0.4,-1.08 0.39,-1.1 0.39,-1.1 0.38,-1.09 0.38,-1.07 0.18,-0.52 0.18,-0.51 0.18,-0.5 0.17,-0.49 0.17,-0.47 0.17,-0.46 0.16,-0.43 0.15,-0.42 0.15,-0.4 0.14,-0.37 0.13,-0.34 0.13,-0.32 0.12,-0.29 0.11,-0.27 0.11,-0.23 0.1,-0.19 0.09,-0.17 0.08,-0.12 c 0.79,-1.1 1.29,-1.1 2.63,-1.1 l 1.1,0 c 0.5,0.05 0.55,0.35 0.55,0.5 0,0.15 -0.1,0.25 -0.25,0.45 -0.5,0.55 -0.8,1.3 -1.15,2.29 l -10.16,28.35 c -1.04,2.88 -3.74,3.53 -6.08,3.53 -0.25,0 -0.89,0 -0.89,-0.55 0,-0.4 0.39,-0.5 0.44,-0.5 1.65,-0.29 2,-0.59 3.24,-3.98 l 4.84,-13.55 -13.75,-13.65 c -0.6,-0.6 -0.9,-0.89 -0.9,-1.54 0,-0.85 0.7,-1.45 1.49,-1.45 0.8,0 1.25,0.55 1.65,1.05 z"
           id="path9353"
           inkscape:connector-curvature="0"
           style="fill:#000000;stroke-width:0" /><path
           d="m 502.99,435.12 0,0.71 -0.02,0.68 -0.03,0.66 -0.04,0.64 -0.06,0.62 -0.08,0.59 -0.09,0.58 -0.11,0.56 -0.12,0.55 -0.15,0.53 -0.17,0.51 -0.19,0.5 -0.21,0.49 -0.24,0.48 -0.26,0.47 -0.14,0.24 -0.15,0.23 c -1.07,1.6 -3.24,2.99 -6.03,2.99 l 0,-0.97 c 1.89,0 3.7,-1.15 4.33,-3.18 0.56,-1.88 0.59,-4.39 0.59,-7.42 0,-2.58 0,-5.17 -0.45,-7.36 -0.7,-3.17 -3.07,-3.94 -4.47,-3.94 l 0,0 c -1.6,0 -3.73,0.94 -4.43,3.8 -0.49,2.06 -0.49,4.92 -0.49,7.5 0,2.54 0,5.19 0.53,7.11 0.73,2.76 2.96,3.49 4.39,3.49 l 0,0.97 c -8.09,0 -8.09,-9.52 -8.09,-12.03 0,-2.51 0,-11.82 8.09,-11.82 8.09,0 8.09,9.31 8.09,11.82 z"
           id="path9355"
           inkscape:connector-curvature="0"
           style="fill:#000000;stroke-width:0" /></g>    </g>
    <g
       id="g9415"
       transform="translate(-1564,140.57143)">
      <g
         word-spacing="normal"
         letter-spacing="normal"
         font-size-adjust="none"
         font-stretch="normal"
         font-weight="normal"
         font-variant="normal"
         font-style="normal"
         stroke-miterlimit="10.433"
         xml:space="preserve"
         transform="matrix(1.0629921,0,0,-1.0629921,-186.02362,789.27165)"
         id="g9417"
         style="font-style:normal;font-variant:normal;font-weight:normal;font-stretch:normal;letter-spacing:normal;word-spacing:normal;text-anchor:start;fill:none;fill-opacity:1;fill-rule:evenodd;stroke:#000000;stroke-linecap:butt;stroke-linejoin:miter;stroke-miterlimit:10.43299961;stroke-dasharray:none;stroke-dashoffset:0;stroke-opacity:1"><path
           id="path9419"
           d="m 473.79,420.55 0.19,-0.5 0.19,-0.51 0.39,-1.05 0.4,-1.08 0.39,-1.1 0.39,-1.1 0.38,-1.09 0.38,-1.07 0.18,-0.52 0.18,-0.51 0.18,-0.5 0.17,-0.49 0.17,-0.47 0.17,-0.46 0.16,-0.43 0.15,-0.42 0.15,-0.4 0.14,-0.37 0.13,-0.34 0.13,-0.32 0.12,-0.29 0.11,-0.27 0.11,-0.23 0.1,-0.19 0.09,-0.17 0.08,-0.12 c 0.79,-1.1 1.29,-1.1 2.63,-1.1 l 1.1,0 c 0.5,0.05 0.55,0.35 0.55,0.5 0,0.15 -0.1,0.25 -0.25,0.45 -0.5,0.55 -0.8,1.3 -1.15,2.29 l -10.16,28.35 c -1.04,2.88 -3.74,3.53 -6.08,3.53 -0.25,0 -0.89,0 -0.89,-0.55 0,-0.4 0.39,-0.5 0.44,-0.5 1.65,-0.29 2,-0.59 3.24,-3.98 l 4.84,-13.55 -13.75,-13.65 c -0.6,-0.6 -0.9,-0.89 -0.9,-1.54 0,-0.85 0.7,-1.45 1.49,-1.45 0.8,0 1.25,0.55 1.65,1.05 z"
           inkscape:connector-curvature="0"
           style="fill:#000000;stroke-width:0" /><path
           id="path9421"
           d="m 496.68,446.18 0,0.04 0,0.04 0,0.04 0,0.04 0,0.04 0,0.04 0,0.03 0,0.04 -0.01,0.03 0,0.03 0,0.04 0,0.03 -0.01,0.02 0,0.03 0,0.03 -0.01,0.03 0,0.02 0,0.02 -0.02,0.05 -0.01,0.04 -0.01,0.04 -0.02,0.03 -0.02,0.03 -0.02,0.03 -0.03,0.03 -0.02,0.02 -0.03,0.02 -0.04,0.02 -0.03,0.01 -0.04,0.01 -0.05,0.02 -0.05,0 -0.02,0.01 -0.03,0 -0.03,0.01 -0.02,0 -0.03,0 -0.03,0 -0.04,0 -0.03,0.01 -0.03,0 -0.04,0 -0.03,0 -0.04,0 -0.04,0 -0.04,0 -0.04,0 -0.04,0 -0.05,0 -0.04,0 c -2.24,-2.19 -5.41,-2.23 -6.84,-2.23 l 0,-1.25 c 0.84,0 3.14,0 5.06,0.97 l 0,-17.78 c 0,-1.15 0,-1.61 -3.49,-1.61 l -1.33,0 0,-1.25 12.45,0 0,1.25 -1.32,0 c -3.49,0 -3.49,0.46 -3.49,1.61 z"
           inkscape:connector-curvature="0"
           style="fill:#000000;stroke-width:0" /></g>    </g>
    <g
       style="stroke:#4d4d4d"
       id="g9489"
       transform="translate(-1042,263.14286)">
      <g
         id="g9491"
         transform="matrix(1.0629921,0,0,-1.0629921,-186.02362,789.27165)"
         xml:space="preserve"
         stroke-miterlimit="10.433"
         font-style="normal"
         font-variant="normal"
         font-weight="normal"
         font-stretch="normal"
         font-size-adjust="none"
         letter-spacing="normal"
         word-spacing="normal"
         style="font-style:normal;font-variant:normal;font-weight:normal;font-stretch:normal;letter-spacing:normal;word-spacing:normal;text-anchor:start;fill:none;fill-opacity:1;fill-rule:evenodd;stroke:#4d4d4d;stroke-linecap:butt;stroke-linejoin:miter;stroke-miterlimit:10.43299961;stroke-dasharray:none;stroke-dashoffset:0;stroke-opacity:1"><path
           d="m 463.92,441.57 0,0.16 0,0.17 0,0.17 -0.01,0.08 0,0.08 -0.01,0.07 -0.01,0.08 -0.01,0.08 -0.01,0.07 -0.01,0.07 -0.02,0.07 -0.02,0.07 -0.02,0.06 -0.03,0.06 -0.03,0.06 -0.03,0.06 -0.03,0.05 -0.04,0.05 -0.04,0.04 -0.05,0.05 -0.05,0.04 -0.05,0.03 -0.03,0.02 -0.03,0.01 -0.03,0.01 -0.04,0.02 -0.03,0.01 -0.04,0.01 -0.03,0.01 -0.04,0.01 -0.04,0 -0.04,0.01 -0.04,0 -0.04,0.01 -0.05,0 -0.04,0 c -1,0 -1,-0.9 -1,-1.79 l 0,-46.23 c 0,-0.89 0,-1.79 1,-1.79 0.99,0 0.99,0.9 0.99,1.79 z"
           id="path9493"
           inkscape:connector-curvature="0"
           style="fill:#000000;stroke:#4d4d4d;stroke-width:0" /><path
           d="m 491.91,421.94 0,0.75 -0.01,0.74 -0.02,0.75 -0.03,0.74 -0.05,0.75 -0.06,0.74 -0.07,0.74 -0.1,0.73 -0.11,0.73 -0.14,0.73 -0.16,0.72 -0.19,0.72 -0.22,0.71 -0.24,0.71 -0.28,0.7 -0.15,0.35 -0.16,0.35 c -2.29,4.78 -6.37,5.58 -8.47,5.58 -2.99,0 -6.62,-1.3 -8.66,-5.93 -1.6,-3.44 -1.85,-7.32 -1.85,-11.31 0,-3.74 0.2,-8.22 2.24,-12.01 2.15,-4.03 5.78,-5.03 8.22,-5.03 l 0,1.1 c -1.94,0 -4.88,1.25 -5.78,6.03 -0.54,2.99 -0.54,7.57 -0.54,10.51 0,3.19 0,6.47 0.4,9.16 0.94,5.93 4.68,6.38 5.92,6.38 1.65,0 4.94,-0.9 5.88,-5.83 0.5,-2.79 0.5,-6.57 0.5,-9.71 0,-3.74 0,-7.13 -0.55,-10.31 -0.75,-4.73 -3.59,-6.23 -5.83,-6.23 l 0,0 0,-1.1 c 2.69,0 6.48,1.05 8.67,5.78 1.59,3.44 1.84,7.32 1.84,11.26 z"
           id="path9495"
           inkscape:connector-curvature="0"
           style="fill:#000000;stroke:#4d4d4d;stroke-width:0" /><path
           d="m 507.6,417.61 0,1.69 -8.72,22.91 c -0.3,0.85 -0.59,1.15 -1.15,1.15 -0.54,0 -0.99,-0.45 -0.99,-1 0,-0.15 0,-0.25 0.25,-0.79 l 8.81,-23.12 -8.81,-23.01 c -0.25,-0.55 -0.25,-0.65 -0.25,-0.9 0,-0.54 0.45,-0.99 0.99,-0.99 0.65,0 0.85,0.49 1.05,0.99 z"
           id="path9497"
           inkscape:connector-curvature="0"
           style="fill:#000000;stroke:#4d4d4d;stroke-width:0" /></g>    </g>
    <g
       style="stroke:#4d4d4d"
       id="g9575"
       transform="translate(-1042,38.857145)">
      <g
         word-spacing="normal"
         letter-spacing="normal"
         font-size-adjust="none"
         font-stretch="normal"
         font-weight="normal"
         font-variant="normal"
         font-style="normal"
         stroke-miterlimit="10.433"
         xml:space="preserve"
         transform="matrix(1.0629921,0,0,-1.0629921,-186.02362,789.27165)"
         id="g9577"
         style="font-style:normal;font-variant:normal;font-weight:normal;font-stretch:normal;letter-spacing:normal;word-spacing:normal;text-anchor:start;fill:none;fill-opacity:1;fill-rule:evenodd;stroke:#4d4d4d;stroke-linecap:butt;stroke-linejoin:miter;stroke-miterlimit:10.43299961;stroke-dasharray:none;stroke-dashoffset:0;stroke-opacity:1"><path
           id="path9579"
           d="m 463.92,441.57 0,0.16 0,0.17 0,0.17 -0.01,0.08 0,0.08 -0.01,0.07 -0.01,0.08 -0.01,0.08 -0.01,0.07 -0.01,0.07 -0.02,0.07 -0.02,0.07 -0.02,0.06 -0.03,0.06 -0.03,0.06 -0.03,0.06 -0.03,0.05 -0.04,0.05 -0.04,0.04 -0.05,0.05 -0.05,0.04 -0.05,0.03 -0.03,0.02 -0.03,0.01 -0.03,0.01 -0.04,0.02 -0.03,0.01 -0.04,0.01 -0.03,0.01 -0.04,0.01 -0.04,0 -0.04,0.01 -0.04,0 -0.04,0.01 -0.05,0 -0.04,0 c -1,0 -1,-0.9 -1,-1.79 l 0,-46.23 c 0,-0.89 0,-1.79 1,-1.79 0.99,0 0.99,0.9 0.99,1.79 z"
           inkscape:connector-curvature="0"
           style="fill:#000000;stroke:#4d4d4d;stroke-width:0" /><path
           id="path9581"
           d="m 483.64,437.88 0,0.05 0,0.06 0,0.05 0,0.05 0,0.05 0,0.05 0,0.04 0,0.05 0,0.04 0,0.04 0,0.04 0,0.04 0,0.04 -0.01,0.04 0,0.03 0,0.04 -0.01,0.03 0,0.03 -0.01,0.06 -0.01,0.05 -0.02,0.05 -0.01,0.05 -0.02,0.04 -0.02,0.04 -0.03,0.04 -0.03,0.03 -0.03,0.02 -0.03,0.03 -0.04,0.02 -0.05,0.02 -0.02,0.01 -0.03,0.01 -0.02,0 -0.03,0.01 -0.03,0.01 -0.03,0 -0.03,0.01 -0.03,0 -0.03,0.01 -0.04,0 -0.04,0 -0.03,0 -0.04,0.01 -0.04,0 -0.04,0 -0.05,0 -0.04,0 -0.05,0 -0.05,0.01 -0.05,0 -0.05,0 -0.05,0 c -3.09,-3.19 -7.47,-3.19 -9.07,-3.19 l 0,-1.55 c 1,0 3.94,0 6.53,1.3 l 0,-25.81 c 0,-1.79 -0.15,-2.39 -4.63,-2.39 l -1.6,0 0,-1.54 16.14,0 0,1.54 -1.59,0 c -4.49,0 -4.64,0.55 -4.64,2.39 z"
           inkscape:connector-curvature="0"
           style="fill:#000000;stroke:#4d4d4d;stroke-width:0" /><path
           id="path9583"
           d="m 507.6,417.61 0,1.69 -8.72,22.91 c -0.3,0.85 -0.59,1.15 -1.15,1.15 -0.54,0 -0.99,-0.45 -0.99,-1 0,-0.15 0,-0.25 0.25,-0.79 l 8.81,-23.12 -8.81,-23.01 c -0.25,-0.55 -0.25,-0.65 -0.25,-0.9 0,-0.54 0.45,-0.99 0.99,-0.99 0.65,0 0.85,0.49 1.05,0.99 z"
           inkscape:connector-curvature="0"
           style="fill:#000000;stroke:#4d4d4d;stroke-width:0" /></g>    </g>
    <path
       style="fill:none;fill-rule:evenodd;stroke:#000080;stroke-width:10;stroke-linecap:butt;stroke-linejoin:miter;stroke-miterlimit:4;stroke-dasharray:none;stroke-opacity:1;marker-start:url(#marker12975)"
       d="m -1623.4285,425.16855 0,435.76505"
       id="path9627"
       inkscape:connector-curvature="0"
       sodipodi:nodetypes="cc" />
    <path
       style="fill:none;fill-rule:evenodd;stroke:#aa0000;stroke-width:10;stroke-linecap:butt;stroke-linejoin:miter;stroke-miterlimit:4;stroke-dasharray:none;stroke-opacity:1;marker-start:url(#marker13085)"
       d="m -1379.6384,750.11193 1.4286,-173.24082"
       id="path9627-5"
       inkscape:connector-curvature="0"
       sodipodi:nodetypes="cc" />
    <path
       style="fill:none;fill-rule:evenodd;stroke:#008000;stroke-width:10;stroke-linecap:butt;stroke-linejoin:miter;stroke-miterlimit:4;stroke-dasharray:none;stroke-opacity:1;marker-start:url(#marker13149);marker-end:url(#marker13209)"
       d="m -1145.0961,831.74764 -0.7143,-231.74637"
       id="path9627-5-6"
       inkscape:connector-curvature="0"
       sodipodi:nodetypes="cc" />
    <path
       style="fill:none;fill-rule:evenodd;stroke:#000000;stroke-width:5;stroke-linecap:butt;stroke-linejoin:miter;stroke-miterlimit:4;stroke-dasharray:30, 5;stroke-dashoffset:0;stroke-opacity:1"
       d="m -1622.1429,397.36218 342.8572,0"
       id="path14267"
       inkscape:connector-curvature="0"
       sodipodi:nodetypes="cc" />
    <path
       style="fill:none;fill-rule:evenodd;stroke:#000000;stroke-width:5;stroke-linecap:butt;stroke-linejoin:miter;stroke-miterlimit:4;stroke-dasharray:30, 5;stroke-dashoffset:0;stroke-opacity:1"
       d="m -1380.7143,574.36218 235.0001,-0.71429"
       id="path14269"
       inkscape:connector-curvature="0"
       sodipodi:nodetypes="cc" />
    <path
       style="fill:none;fill-rule:evenodd;stroke:#000000;stroke-width:5;stroke-linecap:butt;stroke-linejoin:miter;stroke-miterlimit:4;stroke-dasharray:30, 5;stroke-dashoffset:0;stroke-opacity:1"
       d="m -1381.7858,779.14792 65.0001,-0.71429"
       id="path14269-2"
       inkscape:connector-curvature="0"
       sodipodi:nodetypes="cc" />
    <path
       style="fill:none;fill-rule:evenodd;stroke:#000000;stroke-width:5;stroke-linecap:butt;stroke-linejoin:miter;stroke-miterlimit:4;stroke-dasharray:30, 5;stroke-dashoffset:0;stroke-opacity:1"
       d="m -1629.7144,858.86221 485.4287,-0.71429"
       id="path14269-2-9"
       inkscape:connector-curvature="0"
       sodipodi:nodetypes="cc" />
    <path
       style="fill:none;fill-rule:evenodd;stroke:#000000;stroke-width:4;stroke-linecap:butt;stroke-linejoin:miter;stroke-miterlimit:4;stroke-dasharray:none;stroke-opacity:1;marker-start:url(#marker13149-1);marker-end:url(#marker13209-7)"
       d="m -1324.9521,849.00851 -0.4258,-61.14979"
       id="path9627-5-6-9"
       inkscape:connector-curvature="0"
       sodipodi:nodetypes="cc" />
    <path
       style="fill:none;fill-rule:evenodd;stroke:#000000;stroke-width:4;stroke-linecap:butt;stroke-linejoin:miter;stroke-miterlimit:4;stroke-dasharray:none;stroke-opacity:1;marker-start:url(#marker13149-1-3);marker-end:url(#marker13209-7-0)"
       d="m -1278.7871,563.65139 -0.4258,-156.86408"
       id="path9627-5-6-9-2"
       inkscape:connector-curvature="0"
       sodipodi:nodetypes="cc" />
    <g
       style="fill:#000080;fill-opacity:1;stroke:#000080;stroke-opacity:1"
       transform="translate(-1905,305.71428)"
       id="g18648">
      <g
         style="font-style:normal;font-variant:normal;font-weight:normal;font-stretch:normal;letter-spacing:normal;word-spacing:normal;text-anchor:start;fill:#000080;fill-opacity:1;fill-rule:evenodd;stroke:#000080;stroke-linecap:butt;stroke-linejoin:miter;stroke-miterlimit:10.43299961;stroke-dasharray:none;stroke-dashoffset:0;stroke-opacity:1"
         id="g18650"
         transform="matrix(1.0629921,0,0,-1.0629921,-186.02362,789.27165)"
         xml:space="preserve"
         stroke-miterlimit="10.433"
         font-style="normal"
         font-variant="normal"
         font-weight="normal"
         font-stretch="normal"
         font-size-adjust="none"
         letter-spacing="normal"
         word-spacing="normal"><path
           style="fill:#000080;fill-opacity:1;stroke:#000080;stroke-width:0;stroke-opacity:1"
           inkscape:connector-curvature="0"
           d="m 478.02,440.77 -0.04,0.06 -0.03,0.06 -0.03,0.05 -0.02,0.05 -0.03,0.06 -0.03,0.04 -0.03,0.05 -0.02,0.04 -0.03,0.05 -0.03,0.04 -0.02,0.03 -0.03,0.04 -0.03,0.03 -0.03,0.03 -0.03,0.03 -0.03,0.03 -0.04,0.03 -0.03,0.02 -0.04,0.02 -0.04,0.02 -0.04,0.02 -0.04,0.02 -0.05,0.02 -0.05,0.01 -0.05,0.01 -0.05,0.01 -0.06,0.01 -0.06,0.01 -0.07,0 -0.07,0.01 -0.07,0 -0.08,0 c -0.84,0 -0.94,-0.25 -1.29,-0.9 l -0.3,-4.09 13.4,-26.89 -26.85,0 13.45,26.89 0.3,4.09 L 458.59,407 c -0.25,-0.45 -0.25,-0.55 -0.25,-0.6 0,-0.4 0.3,-0.4 1.1,-0.4 l 34.57,0 c 0.79,0 1.09,0 1.09,0.4 0,0.05 0,0.15 -0.24,0.6 z"
           id="path18652" /><path
           style="fill:#000080;fill-opacity:1;stroke:#000080;stroke-width:0;stroke-opacity:1"
           inkscape:connector-curvature="0"
           d="m 532.27,417.61 0.01,0.02 0.01,0.02 0.02,0.05 0.02,0.05 0.02,0.06 0.02,0.05 0.02,0.05 0.02,0.05 0.02,0.05 0.01,0.02 0.01,0.03 0.01,0.02 0,0.02 0.01,0.03 0.01,0.02 0.01,0.02 0,0.02 0.01,0.02 0,0.01 0.01,0.02 0,0.02 0,0.01 0,0.01 0.01,0.01 0,0.01 c 0,0.06 0,0.55 -0.6,0.55 -0.45,0 -0.55,-0.3 -0.65,-0.6 -3.24,-7.37 -5.08,-10.71 -13.6,-10.71 l -7.27,0 c -0.7,0 -0.8,0 -1.1,0.05 -0.5,0.05 -0.64,0.11 -0.64,0.5 0,0.15 0,0.25 0.25,1.15 l 3.38,13.6 4.93,0 c 4.24,0 4.24,-1.05 4.24,-2.29 0,-0.35 0,-0.95 -0.35,-2.44 -0.1,-0.25 -0.15,-0.4 -0.15,-0.56 0,-0.24 0.2,-0.54 0.65,-0.54 0.4,0 0.55,0.25 0.74,0.99 l 2.85,11.66 c 0,0.3 -0.25,0.55 -0.6,0.55 -0.45,0 -0.55,-0.3 -0.7,-0.9 -1.05,-3.78 -1.94,-4.93 -6.52,-4.93 l -4.69,0 2.99,12.01 c 0.45,1.74 0.5,1.94 2.69,1.94 l 7.03,0 c 6.07,0 7.57,-1.45 7.57,-5.53 0,-1.19 0,-1.3 -0.2,-2.64 0,-0.3 -0.05,-0.65 -0.05,-0.9 0,-0.25 0.15,-0.6 0.59,-0.6 0.55,0 0.6,0.3 0.7,1.25 l 1,8.62 c 0.15,1.34 -0.1,1.34 -1.35,1.34 l -25.15,0 c -1,0 -1.5,0 -1.5,-0.99 0,-0.55 0.45,-0.55 1.4,-0.55 1.84,0 3.23,0 3.23,-0.9 0,-0.2 0,-0.3 -0.25,-1.19 l -6.57,-26.35 c -0.5,-1.95 -0.6,-2.35 -4.53,-2.35 -0.85,0 -1.4,0 -1.4,-0.94 0,-0.6 0.45,-0.6 1.4,-0.6 l 25.85,0 c 1.14,0 1.2,0.05 1.54,0.85 z"
           id="path18654" /><path
           style="fill:#000080;fill-opacity:1;stroke:#000080;stroke-width:0;stroke-opacity:1"
           inkscape:connector-curvature="0"
           d="m 552.55,433.34 0,0.34 0,0.33 -0.01,0.32 -0.01,0.31 -0.01,0.15 -0.02,0.15 -0.01,0.14 -0.02,0.15 -0.03,0.14 -0.02,0.14 -0.03,0.14 -0.04,0.14 -0.04,0.13 -0.04,0.13 -0.05,0.14 -0.06,0.13 -0.06,0.13 -0.07,0.12 -0.07,0.13 -0.08,0.13 -0.09,0.12 -0.1,0.13 -0.1,0.12 -0.11,0.12 -0.12,0.13 -0.13,0.12 -0.14,0.12 -0.14,0.12 c -1.43,1.18 -3.11,1.74 -5.17,1.74 -3.31,0 -5.64,-1.25 -5.64,-3.38 0,-1.12 0.77,-1.71 1.67,-1.71 0.94,0 1.64,0.7 1.64,1.64 0,0.59 -0.28,1.33 -1.22,1.6 1.25,0.87 3.28,0.87 3.49,0.87 1.95,0 4.08,-1.28 4.08,-4.21 l 0,-1.09 0,-0.9 0,-3.45 c 0,-3.35 -2.93,-4.29 -4.5,-4.29 -1.78,0 -3.45,1.18 -3.45,2.89 0,1.92 1.67,4.6 7.95,4.85 l 0,0.9 c -1.92,-0.06 -4.22,-0.17 -6.77,-1.11 -3.13,-1.15 -4.11,-3.07 -4.11,-4.64 0,-3 3.62,-3.87 6.1,-3.87 2.79,0 4.43,1.57 5.16,2.93 0.14,-1.43 1.08,-2.76 2.69,-2.76 0.06,0 3.45,0 3.45,3.32 l 0,1.91 -1.19,0 0,-1.88 c 0,-0.35 0,-2.02 -1.29,-2.02 -1.29,0 -1.29,1.64 -1.29,2.09 z"
           id="path18656" /><path
           style="fill:#000080;fill-opacity:1;stroke:#000080;stroke-width:0;stroke-opacity:1"
           inkscape:connector-curvature="0"
           d="m 562.94,448.2 -5.23,-0.38 0,-1.26 c 2.37,0 2.61,-0.28 2.61,-2.02 l 0,-20.54 1.19,0 1.22,2.13 c 1.32,-1.75 3.24,-2.48 5.09,-2.48 4.6,0 8.54,3.45 8.54,7.88 0,4.26 -3.59,7.85 -8.16,7.85 l -0.17,-0.98 c 1.95,0 3.35,-1.11 4.04,-2.16 0.7,-1.01 1.12,-2.37 1.12,-4.67 0,-0.8 0,-3.42 -1.43,-5.06 -1.39,-1.57 -3.1,-1.88 -4.11,-1.88 -2.8,0 -4.19,2.19 -4.57,2.93 l 0,8.12 c 0.97,1.61 2.86,2.72 4.95,2.72 l 0.17,0.98 c -2.09,0 -4,-0.84 -5.26,-2.09 z"
           id="path18658" /><path
           style="fill:#000080;fill-opacity:1;stroke:#000080;stroke-width:0;stroke-opacity:1"
           inkscape:connector-curvature="0"
           d="m 591.22,438.64 0,0.06 -0.01,0.05 0,0.05 0,0.05 0,0.05 0,0.05 0,0.04 0,0.05 -0.01,0.04 0,0.04 0,0.04 -0.01,0.03 -0.01,0.04 -0.01,0.03 -0.01,0.03 -0.01,0.03 -0.01,0.03 -0.01,0.02 -0.02,0.03 -0.01,0.02 -0.02,0.02 -0.02,0.02 -0.03,0.02 -0.02,0.01 -0.03,0.02 -0.03,0.01 -0.03,0.01 -0.01,0 -0.02,0.01 -0.02,0 -0.02,0 -0.02,0.01 -0.02,0 -0.02,0 -0.02,0 -0.02,0 -0.02,0 c -0.18,0 -0.25,0 -0.7,-0.42 -0.07,-0.03 -0.42,-0.34 -0.63,-0.52 -1.05,0.73 -2.37,0.94 -3.66,0.94 -4.99,0 -6.17,-2.61 -6.17,-4.36 0,-1.11 0.49,-2.02 1.33,-2.72 1.32,-1.15 2.64,-1.39 4.81,-1.74 1.74,-0.32 4.56,-0.8 4.56,-3.14 0,-1.36 -0.94,-2.96 -4.29,-2.96 -3.34,0 -4.56,2.19 -5.19,4.57 -0.11,0.45 -0.14,0.59 -0.63,0.59 -0.59,0 -0.59,-0.25 -0.59,-0.94 l 0,-4.29 c 0,-0.6 0,-0.91 0.49,-0.91 0.31,0 0.97,0.73 1.67,1.5 1.54,-1.43 3.42,-1.5 4.25,-1.5 4.54,0 6.21,2.44 6.21,4.92 0,1.32 -0.59,2.37 -1.5,3.21 -1.32,1.22 -2.93,1.49 -4.15,1.7 -2.79,0.49 -5.05,0.91 -5.05,2.76 0,1.12 0.94,2.47 4.25,2.47 4.04,0 4.22,-2.82 4.29,-3.83 0.04,-0.38 0.45,-0.38 0.59,-0.38 0.6,0 0.6,0.24 0.6,0.9 z"
           id="path18660" /><path
           style="fill:#000080;fill-opacity:1;stroke:#000080;stroke-width:0;stroke-opacity:1"
           inkscape:connector-curvature="0"
           d="m 601.64,425.99 -0.01,0.11 0,0.11 -0.02,0.11 -0.02,0.1 -0.02,0.11 -0.03,0.1 -0.03,0.09 -0.04,0.1 -0.04,0.09 -0.05,0.09 -0.05,0.08 -0.06,0.08 -0.05,0.08 -0.07,0.08 -0.06,0.07 -0.07,0.07 -0.07,0.06 -0.07,0.06 -0.08,0.06 -0.08,0.05 -0.08,0.05 -0.08,0.05 -0.09,0.04 -0.08,0.04 -0.09,0.03 -0.09,0.03 -0.09,0.02 -0.1,0.03 -0.09,0.01 -0.09,0.01 -0.1,0.01 -0.09,0 c -1.22,0 -2.03,-0.97 -2.03,-1.99 0,-1.22 0.98,-2.02 1.99,-2.02 1.23,0 2.03,0.98 2.03,1.99 z"
           id="path18662" /></g>    </g>
    <g
       style="fill:#aa0000;fill-opacity:1"
       transform="translate(-1659.2857,312.14286)"
       id="g18872">
      <g
         style="font-style:normal;font-variant:normal;font-weight:normal;font-stretch:normal;letter-spacing:normal;word-spacing:normal;text-anchor:start;fill:#aa0000;fill-opacity:1;fill-rule:evenodd;stroke:#000000;stroke-linecap:butt;stroke-linejoin:miter;stroke-miterlimit:10.43299961;stroke-dasharray:none;stroke-dashoffset:0;stroke-opacity:1"
         word-spacing="normal"
         letter-spacing="normal"
         font-size-adjust="none"
         font-stretch="normal"
         font-weight="normal"
         font-variant="normal"
         font-style="normal"
         stroke-miterlimit="10.433"
         xml:space="preserve"
         transform="matrix(1.0629921,0,0,-1.0629921,-186.02362,789.27165)"
         id="g18874"><path
           style="fill:#aa0000;fill-opacity:1;stroke-width:0"
           inkscape:connector-curvature="0"
           id="path18876"
           d="m 478.02,440.77 -0.04,0.06 -0.03,0.06 -0.03,0.05 -0.02,0.05 -0.03,0.06 -0.03,0.04 -0.03,0.05 -0.02,0.04 -0.03,0.05 -0.03,0.04 -0.02,0.03 -0.03,0.04 -0.03,0.03 -0.03,0.03 -0.03,0.03 -0.03,0.03 -0.04,0.03 -0.03,0.02 -0.04,0.02 -0.04,0.02 -0.04,0.02 -0.04,0.02 -0.05,0.02 -0.05,0.01 -0.05,0.01 -0.05,0.01 -0.06,0.01 -0.06,0.01 -0.07,0 -0.07,0.01 -0.07,0 -0.08,0 c -0.84,0 -0.94,-0.25 -1.29,-0.9 l -0.3,-4.09 13.4,-26.89 -26.85,0 13.45,26.89 0.3,4.09 L 458.59,407 c -0.25,-0.45 -0.25,-0.55 -0.25,-0.6 0,-0.4 0.3,-0.4 1.1,-0.4 l 34.57,0 c 0.79,0 1.09,0 1.09,0.4 0,0.05 0,0.15 -0.24,0.6 z" /><path
           style="fill:#aa0000;fill-opacity:1;stroke-width:0"
           inkscape:connector-curvature="0"
           id="path18878"
           d="m 532.27,417.61 0.01,0.02 0.01,0.02 0.02,0.05 0.02,0.05 0.02,0.06 0.02,0.05 0.02,0.05 0.02,0.05 0.02,0.05 0.01,0.02 0.01,0.03 0.01,0.02 0,0.02 0.01,0.03 0.01,0.02 0.01,0.02 0,0.02 0.01,0.02 0,0.01 0.01,0.02 0,0.02 0,0.01 0,0.01 0.01,0.01 0,0.01 c 0,0.06 0,0.55 -0.6,0.55 -0.45,0 -0.55,-0.3 -0.65,-0.6 -3.24,-7.37 -5.08,-10.71 -13.6,-10.71 l -7.27,0 c -0.7,0 -0.8,0 -1.1,0.05 -0.5,0.05 -0.64,0.11 -0.64,0.5 0,0.15 0,0.25 0.25,1.15 l 3.38,13.6 4.93,0 c 4.24,0 4.24,-1.05 4.24,-2.29 0,-0.35 0,-0.95 -0.35,-2.44 -0.1,-0.25 -0.15,-0.4 -0.15,-0.56 0,-0.24 0.2,-0.54 0.65,-0.54 0.4,0 0.55,0.25 0.74,0.99 l 2.85,11.66 c 0,0.3 -0.25,0.55 -0.6,0.55 -0.45,0 -0.55,-0.3 -0.7,-0.9 -1.05,-3.78 -1.94,-4.93 -6.52,-4.93 l -4.69,0 2.99,12.01 c 0.45,1.74 0.5,1.94 2.69,1.94 l 7.03,0 c 6.07,0 7.57,-1.45 7.57,-5.53 0,-1.19 0,-1.3 -0.2,-2.64 0,-0.3 -0.05,-0.65 -0.05,-0.9 0,-0.25 0.15,-0.6 0.59,-0.6 0.55,0 0.6,0.3 0.7,1.25 l 1,8.62 c 0.15,1.34 -0.1,1.34 -1.35,1.34 l -25.15,0 c -1,0 -1.5,0 -1.5,-0.99 0,-0.55 0.45,-0.55 1.4,-0.55 1.84,0 3.23,0 3.23,-0.9 0,-0.2 0,-0.3 -0.25,-1.19 l -6.57,-26.35 c -0.5,-1.95 -0.6,-2.35 -4.53,-2.35 -0.85,0 -1.4,0 -1.4,-0.94 0,-0.6 0.45,-0.6 1.4,-0.6 l 25.85,0 c 1.14,0 1.2,0.05 1.54,0.85 z" /><path
           style="fill:#aa0000;fill-opacity:1;stroke-width:0"
           inkscape:connector-curvature="0"
           id="path18880"
           d="m 552.34,431.95 0.07,0 0.07,0 0.06,0 0.06,0 0.05,0 0.06,0 0.05,0.01 0.04,0 0.05,0.01 0.04,0 0.04,0.01 0.04,0.01 0.04,0.01 0.03,0.01 0.04,0.02 0.03,0.02 0.02,0.01 0.03,0.03 0.02,0.02 0.02,0.03 0.02,0.03 0.02,0.03 0.02,0.03 0,0.02 0.01,0.02 0.01,0.02 0,0.03 0.01,0.02 0,0.02 0.01,0.03 0,0.02 0,0.03 0.01,0.02 0,0.03 0,0.03 0.01,0.03 0,0.03 0,0.04 0,0.03 0,0.03 0,0.04 c 0,3.07 -1.71,6.83 -6.91,6.83 -4.56,0 -8.05,-3.62 -8.05,-7.91 0,-4.43 3.87,-7.99 8.51,-7.99 4.7,0 6.45,3.77 6.45,4.53 0,0.14 -0.07,0.49 -0.59,0.49 -0.46,0 -0.53,-0.21 -0.63,-0.56 -1.08,-2.82 -3.73,-3.34 -4.99,-3.34 -1.64,0 -3.21,0.73 -4.25,2.05 -1.29,1.64 -1.33,3.77 -1.33,5.13 l 0.04,0.91 c 0.38,4.91 3.52,5.71 4.84,5.71 4.29,0 4.43,-4.84 4.47,-5.71 l -9.31,0 -0.04,-0.91 z" /><path
           style="fill:#aa0000;fill-opacity:1;stroke-width:0"
           inkscape:connector-curvature="0"
           id="path18882"
           d="m 582.66,434.57 0,0.28 -0.01,0.27 -0.03,0.27 -0.03,0.25 -0.04,0.25 -0.05,0.25 -0.06,0.23 -0.07,0.23 -0.08,0.22 -0.09,0.21 -0.1,0.2 -0.11,0.19 -0.12,0.19 -0.13,0.17 -0.14,0.17 -0.15,0.16 -0.17,0.15 -0.17,0.14 -0.19,0.13 -0.19,0.13 -0.21,0.11 -0.22,0.1 -0.23,0.1 -0.25,0.08 -0.25,0.08 -0.27,0.06 -0.28,0.06 -0.29,0.05 -0.31,0.03 -0.31,0.03 -0.33,0.01 -0.35,0.01 c -2.75,0 -4.64,-1.5 -5.58,-3.25 -0.69,2.48 -2.58,3.25 -5.12,3.25 -2.86,0 -4.71,-1.57 -5.69,-3.38 l -0.03,0 0,3.38 -5.13,-0.39 0,-1.25 c 2.34,0 2.62,-0.24 2.62,-1.95 l 0,-9.04 c 0,-1.5 -0.35,-1.5 -2.62,-1.5 l 0,-1.25 7.99,0 0,1.25 c -2.27,0 -2.62,0 -2.62,1.5 l 0,6.28 c 0,3.66 2.9,5.37 5.2,5.37 2.44,0 2.75,-1.92 2.75,-3.7 l 0,-7.95 c 0,-1.5 -0.35,-1.5 -2.61,-1.5 l 0,-1.25 7.98,0 0,1.25 c -2.27,0 -2.61,0 -2.61,1.5 l 0,6.28 c 0,3.66 2.89,5.37 5.19,5.37 2.44,0 2.76,-1.92 2.76,-3.7 l 0,-7.95 c 0,-1.5 -0.35,-1.5 -2.62,-1.5 l 0,-1.25 7.99,0 0,1.25 c -2.27,0 -2.62,0 -2.62,1.5 z" /><path
           style="fill:#aa0000;fill-opacity:1;stroke-width:0"
           inkscape:connector-curvature="0"
           id="path18884"
           d="m 594.64,425.99 -0.01,0.11 0,0.11 -0.02,0.11 -0.02,0.1 -0.02,0.11 -0.03,0.1 -0.03,0.09 -0.04,0.1 -0.04,0.09 -0.05,0.09 -0.05,0.08 -0.06,0.08 -0.05,0.08 -0.07,0.08 -0.06,0.07 -0.07,0.07 -0.07,0.06 -0.07,0.06 -0.08,0.06 -0.08,0.05 -0.08,0.05 -0.08,0.05 -0.09,0.04 -0.08,0.04 -0.09,0.03 -0.09,0.03 -0.09,0.02 -0.1,0.03 -0.09,0.01 -0.09,0.01 -0.1,0.01 -0.09,0 c -1.22,0 -2.03,-0.97 -2.03,-1.99 0,-1.22 0.98,-2.02 1.99,-2.02 1.23,0 2.03,0.98 2.03,1.99 z" /></g>    </g>
    <g
       style="fill:#008000;fill-opacity:1"
       transform="translate(-1424.2857,381.42857)"
       id="g19108">
      <g
         style="font-style:normal;font-variant:normal;font-weight:normal;font-stretch:normal;letter-spacing:normal;word-spacing:normal;text-anchor:start;fill:#008000;fill-opacity:1;fill-rule:evenodd;stroke:#000000;stroke-linecap:butt;stroke-linejoin:miter;stroke-miterlimit:10.43299961;stroke-dasharray:none;stroke-dashoffset:0;stroke-opacity:1"
         id="g19110"
         transform="matrix(1.0629921,0,0,-1.0629921,-186.02362,789.27165)"
         xml:space="preserve"
         stroke-miterlimit="10.433"
         font-style="normal"
         font-variant="normal"
         font-weight="normal"
         font-stretch="normal"
         font-size-adjust="none"
         letter-spacing="normal"
         word-spacing="normal"><path
           style="fill:#008000;fill-opacity:1;stroke-width:0"
           inkscape:connector-curvature="0"
           d="m 478.02,440.77 -0.04,0.06 -0.03,0.06 -0.03,0.05 -0.02,0.05 -0.03,0.06 -0.03,0.04 -0.03,0.05 -0.02,0.04 -0.03,0.05 -0.03,0.04 -0.02,0.03 -0.03,0.04 -0.03,0.03 -0.03,0.03 -0.03,0.03 -0.03,0.03 -0.04,0.03 -0.03,0.02 -0.04,0.02 -0.04,0.02 -0.04,0.02 -0.04,0.02 -0.05,0.02 -0.05,0.01 -0.05,0.01 -0.05,0.01 -0.06,0.01 -0.06,0.01 -0.07,0 -0.07,0.01 -0.07,0 -0.08,0 c -0.84,0 -0.94,-0.25 -1.29,-0.9 l -0.3,-4.09 13.4,-26.89 -26.85,0 13.45,26.89 0.3,4.09 L 458.59,407 c -0.25,-0.45 -0.25,-0.55 -0.25,-0.6 0,-0.4 0.3,-0.4 1.1,-0.4 l 34.57,0 c 0.79,0 1.09,0 1.09,0.4 0,0.05 0,0.15 -0.24,0.6 z"
           id="path19112" /><path
           style="fill:#008000;fill-opacity:1;stroke-width:0"
           inkscape:connector-curvature="0"
           d="m 532.27,417.61 0.01,0.02 0.01,0.02 0.02,0.05 0.02,0.05 0.02,0.06 0.02,0.05 0.02,0.05 0.02,0.05 0.02,0.05 0.01,0.02 0.01,0.03 0.01,0.02 0,0.02 0.01,0.03 0.01,0.02 0.01,0.02 0,0.02 0.01,0.02 0,0.01 0.01,0.02 0,0.02 0,0.01 0,0.01 0.01,0.01 0,0.01 c 0,0.06 0,0.55 -0.6,0.55 -0.45,0 -0.55,-0.3 -0.65,-0.6 -3.24,-7.37 -5.08,-10.71 -13.6,-10.71 l -7.27,0 c -0.7,0 -0.8,0 -1.1,0.05 -0.5,0.05 -0.64,0.11 -0.64,0.5 0,0.15 0,0.25 0.25,1.15 l 3.38,13.6 4.93,0 c 4.24,0 4.24,-1.05 4.24,-2.29 0,-0.35 0,-0.95 -0.35,-2.44 -0.1,-0.25 -0.15,-0.4 -0.15,-0.56 0,-0.24 0.2,-0.54 0.65,-0.54 0.4,0 0.55,0.25 0.74,0.99 l 2.85,11.66 c 0,0.3 -0.25,0.55 -0.6,0.55 -0.45,0 -0.55,-0.3 -0.7,-0.9 -1.05,-3.78 -1.94,-4.93 -6.52,-4.93 l -4.69,0 2.99,12.01 c 0.45,1.74 0.5,1.94 2.69,1.94 l 7.03,0 c 6.07,0 7.57,-1.45 7.57,-5.53 0,-1.19 0,-1.3 -0.2,-2.64 0,-0.3 -0.05,-0.65 -0.05,-0.9 0,-0.25 0.15,-0.6 0.59,-0.6 0.55,0 0.6,0.3 0.7,1.25 l 1,8.62 c 0.15,1.34 -0.1,1.34 -1.35,1.34 l -25.15,0 c -1,0 -1.5,0 -1.5,-0.99 0,-0.55 0.45,-0.55 1.4,-0.55 1.84,0 3.23,0 3.23,-0.9 0,-0.2 0,-0.3 -0.25,-1.19 l -6.57,-26.35 c -0.5,-1.95 -0.6,-2.35 -4.53,-2.35 -0.85,0 -1.4,0 -1.4,-0.94 0,-0.6 0.45,-0.6 1.4,-0.6 l 25.85,0 c 1.14,0 1.2,0.05 1.54,0.85 z"
           id="path19114" /><path
           style="fill:#008000;fill-opacity:1;stroke-width:0"
           inkscape:connector-curvature="0"
           d="m 552.55,433.34 0,0.34 0,0.33 -0.01,0.32 -0.01,0.31 -0.01,0.15 -0.02,0.15 -0.01,0.14 -0.02,0.15 -0.03,0.14 -0.02,0.14 -0.03,0.14 -0.04,0.14 -0.04,0.13 -0.04,0.13 -0.05,0.14 -0.06,0.13 -0.06,0.13 -0.07,0.12 -0.07,0.13 -0.08,0.13 -0.09,0.12 -0.1,0.13 -0.1,0.12 -0.11,0.12 -0.12,0.13 -0.13,0.12 -0.14,0.12 -0.14,0.12 c -1.43,1.18 -3.11,1.74 -5.17,1.74 -3.31,0 -5.64,-1.25 -5.64,-3.38 0,-1.12 0.77,-1.71 1.67,-1.71 0.94,0 1.64,0.7 1.64,1.64 0,0.59 -0.28,1.33 -1.22,1.6 1.25,0.87 3.28,0.87 3.49,0.87 1.95,0 4.08,-1.28 4.08,-4.21 l 0,-1.09 0,-0.9 0,-3.45 c 0,-3.35 -2.93,-4.29 -4.5,-4.29 -1.78,0 -3.45,1.18 -3.45,2.89 0,1.92 1.67,4.6 7.95,4.85 l 0,0.9 c -1.92,-0.06 -4.22,-0.17 -6.77,-1.11 -3.13,-1.15 -4.11,-3.07 -4.11,-4.64 0,-3 3.62,-3.87 6.1,-3.87 2.79,0 4.43,1.57 5.16,2.93 0.14,-1.43 1.08,-2.76 2.69,-2.76 0.06,0 3.45,0 3.45,3.32 l 0,1.91 -1.19,0 0,-1.88 c 0,-0.35 0,-2.02 -1.29,-2.02 -1.29,0 -1.29,1.64 -1.29,2.09 z"
           id="path19116" /><path
           style="fill:#008000;fill-opacity:1;stroke-width:0"
           inkscape:connector-curvature="0"
           d="m 568.41,447.82 0,-1.26 c 2.34,0 2.62,-0.24 2.62,-1.95 l 0,-7.22 c -1.29,1.25 -2.96,1.99 -4.88,1.99 l 0.17,-0.98 c 1.68,0 3.18,-0.77 4.15,-2.02 0.42,-0.56 0.42,-0.59 0.42,-1.26 l 0,-7.46 c -0.91,-1.64 -2.69,-3.03 -4.95,-3.03 -1.96,0 -3.35,1.15 -4.04,2.16 -0.7,1.05 -1.12,2.44 -1.12,4.67 0,0.81 0,3.42 1.43,5.06 1.39,1.57 3.1,1.88 4.11,1.88 l -0.17,0.98 c -4.64,0 -8.55,-3.49 -8.55,-7.88 0,-4.36 3.7,-7.85 8.13,-7.85 2.86,0 4.57,1.54 5.16,2.16 l 0,-2.16 5.37,0.35 0,1.25 c -2.34,0 -2.61,0.25 -2.61,1.96 l 0,20.99 z"
           id="path19118" /><path
           style="fill:#008000;fill-opacity:1;stroke-width:0"
           inkscape:connector-curvature="0"
           d="m 585.35,445.52 0,0.09 0,0.09 -0.02,0.1 -0.01,0.09 -0.02,0.09 -0.03,0.09 -0.03,0.09 -0.03,0.09 -0.04,0.09 -0.04,0.08 -0.05,0.09 -0.05,0.08 -0.06,0.08 -0.05,0.07 -0.07,0.08 -0.06,0.07 -0.07,0.06 -0.07,0.07 -0.08,0.06 -0.07,0.06 -0.09,0.05 -0.08,0.05 -0.09,0.05 -0.09,0.04 -0.09,0.04 -0.1,0.03 -0.1,0.03 -0.1,0.03 -0.1,0.02 -0.11,0.01 -0.1,0.01 -0.11,0 c -1.05,0 -1.99,-0.84 -1.99,-1.98 0,-1.26 1.01,-2.03 1.99,-2.03 1.11,0 2.01,0.87 2.01,2.03 z"
           id="path19120" /><path
           style="fill:#008000;fill-opacity:1;stroke-width:0"
           inkscape:connector-curvature="0"
           d="m 580.06,438.99 0,-1.25 c 2.19,0 2.51,-0.21 2.51,-1.92 l 0,-9.07 c 0,-1.5 -0.35,-1.5 -2.62,-1.5 l 0,-1.25 7.6,0 0,1.25 c -2.02,0 -2.37,0 -2.37,1.47 l 0,12.66 z"
           id="path19122" /><path
           style="fill:#008000;fill-opacity:1;stroke-width:0"
           inkscape:connector-curvature="0"
           d="m 605.55,433.34 0,0.34 0,0.33 -0.01,0.32 -0.01,0.31 -0.01,0.15 -0.02,0.15 -0.01,0.14 -0.02,0.15 -0.03,0.14 -0.02,0.14 -0.03,0.14 -0.04,0.14 -0.04,0.13 -0.04,0.13 -0.05,0.14 -0.06,0.13 -0.06,0.13 -0.07,0.12 -0.07,0.13 -0.08,0.13 -0.09,0.12 -0.1,0.13 -0.1,0.12 -0.11,0.12 -0.12,0.13 -0.13,0.12 -0.14,0.12 -0.14,0.12 c -1.43,1.18 -3.11,1.74 -5.17,1.74 -3.31,0 -5.64,-1.25 -5.64,-3.38 0,-1.12 0.77,-1.71 1.67,-1.71 0.94,0 1.64,0.7 1.64,1.64 0,0.59 -0.28,1.33 -1.22,1.6 1.25,0.87 3.28,0.87 3.49,0.87 1.95,0 4.08,-1.28 4.08,-4.21 l 0,-1.09 0,-0.9 0,-3.45 c 0,-3.35 -2.93,-4.29 -4.5,-4.29 -1.78,0 -3.45,1.18 -3.45,2.89 0,1.92 1.67,4.6 7.95,4.85 l 0,0.9 c -1.92,-0.06 -4.22,-0.17 -6.77,-1.11 -3.13,-1.15 -4.11,-3.07 -4.11,-4.64 0,-3 3.62,-3.87 6.1,-3.87 2.79,0 4.43,1.57 5.16,2.93 0.14,-1.43 1.08,-2.76 2.69,-2.76 0.06,0 3.45,0 3.45,3.32 l 0,1.91 -1.19,0 0,-1.88 c 0,-0.35 0,-2.02 -1.29,-2.02 -1.29,0 -1.29,1.64 -1.29,2.09 z"
           id="path19124" /><path
           style="fill:#008000;fill-opacity:1;stroke-width:0"
           inkscape:connector-curvature="0"
           d="m 616.64,425.99 -0.01,0.11 0,0.11 -0.02,0.11 -0.02,0.1 -0.02,0.11 -0.03,0.1 -0.03,0.09 -0.04,0.1 -0.04,0.09 -0.05,0.09 -0.05,0.08 -0.06,0.08 -0.05,0.08 -0.07,0.08 -0.06,0.07 -0.07,0.07 -0.07,0.06 -0.07,0.06 -0.08,0.06 -0.08,0.05 -0.08,0.05 -0.08,0.05 -0.09,0.04 -0.08,0.04 -0.09,0.03 -0.09,0.03 -0.09,0.02 -0.1,0.03 -0.09,0.01 -0.09,0.01 -0.1,0.01 -0.09,0 c -1.22,0 -2.03,-0.97 -2.03,-1.99 0,-1.22 0.98,-2.02 1.99,-2.02 1.23,0 2.03,0.98 2.03,1.99 z"
           id="path19126" /></g>    </g>
    <path
       sodipodi:nodetypes="cc"
       inkscape:connector-curvature="0"
       id="path20446"
       d="m -1624.3253,898.19209 0,26.89087"
       style="fill:none;fill-rule:evenodd;stroke:#000000;stroke-width:5;stroke-linecap:round;stroke-linejoin:miter;stroke-miterlimit:4;stroke-dasharray:none;stroke-opacity:1" />
    <path
       sodipodi:nodetypes="cc"
       inkscape:connector-curvature="0"
       id="path20448"
       d="m -1379.8684,896.71747 0,28.87057"
       style="fill:none;fill-rule:evenodd;stroke:#000000;stroke-width:5;stroke-linecap:round;stroke-linejoin:miter;stroke-miterlimit:4;stroke-dasharray:none;stroke-opacity:1" />
    <g
       id="g20834"
       transform="translate(-1953.8688,629.83011)">
      <g
         id="g20836"
         transform="matrix(1.0629921,0,0,-1.0629921,-186.02362,789.27165)"
         xml:space="preserve"
         stroke-miterlimit="10.433"
         font-style="normal"
         font-variant="normal"
         font-weight="normal"
         font-stretch="normal"
         font-size-adjust="none"
         letter-spacing="normal"
         word-spacing="normal"
         style="font-style:normal;font-variant:normal;font-weight:normal;font-stretch:normal;letter-spacing:normal;word-spacing:normal;text-anchor:start;fill:none;fill-opacity:1;fill-rule:evenodd;stroke:#000000;stroke-linecap:butt;stroke-linejoin:miter;stroke-miterlimit:10.43299961;stroke-dasharray:none;stroke-dashoffset:0;stroke-opacity:1"><path
           d="m 481.85,422.94 0.48,0.11 0.47,0.12 0.49,0.14 0.48,0.15 0.48,0.16 0.48,0.18 0.48,0.19 0.48,0.2 0.47,0.22 0.46,0.23 0.46,0.24 0.45,0.25 0.44,0.27 0.43,0.28 0.42,0.29 0.4,0.3 0.39,0.31 0.37,0.32 0.35,0.34 0.34,0.35 0.32,0.35 0.29,0.37 0.28,0.38 0.25,0.39 0.22,0.4 0.2,0.41 0.17,0.42 0.15,0.43 0.11,0.44 0.09,0.45 0.05,0.45 0.01,0.47 c 0,4.29 -4.48,7.47 -11.01,7.47 l -14.19,0 c -1,0 -1.45,0 -1.45,-0.99 0,-0.55 0.45,-0.55 1.4,-0.55 0.1,0 1.04,0 1.89,-0.1 0.9,-0.1 1.34,-0.15 1.34,-0.8 0,-0.2 -0.04,-0.35 -0.2,-0.94 l -6.67,-26.75 c -0.5,-1.95 -0.6,-2.35 -4.53,-2.35 -0.9,0 -1.35,0 -1.35,-0.99 0,-0.55 0.6,-0.55 0.7,-0.55 l 12.6,0 c 0.4,0 1,0 1,1 0,0.54 -0.45,0.54 -1.39,0.54 -1.85,0 -3.24,0 -3.24,0.9 0,0.3 0.09,0.55 0.15,0.85 l 3.28,13.2 5.93,0 -0.05,1.1 -5.58,0 3.24,13 c 0.3,1.19 0.45,1.69 1.39,1.84 0.45,0.05 2.05,0.05 3.04,0.05 3.54,0 9.07,0 9.07,-4.93 0,-1.7 -0.8,-5.14 -2.74,-7.08 -1.3,-1.29 -3.94,-2.88 -8.42,-2.88 l 0.05,-1.1 c 4.54,0 5.43,-2.79 5.43,-4.53 0,-0.75 -0.4,-2.3 -0.7,-3.44 -0.35,-1.4 -0.79,-3.24 -0.79,-4.23 0,-5.39 5.97,-5.39 6.62,-5.39 4.24,0 5.98,5.03 5.98,5.73 0,0.6 -0.55,0.6 -0.6,0.6 -0.45,0 -0.55,-0.35 -0.65,-0.7 -1.24,-3.68 -3.38,-4.53 -4.53,-4.53 -1.64,0 -1.99,1.1 -1.99,3.04 0,1.54 0.3,4.08 0.5,5.68 0.1,0.69 0.2,1.64 0.2,2.34 0,3.83 -3.34,5.38 -4.69,5.88 z"
           id="path20838"
           inkscape:connector-curvature="0"
           style="fill:#000000;stroke-width:0" /><path
           d="m 511.99,435.12 0,0.71 -0.02,0.68 -0.03,0.66 -0.04,0.64 -0.06,0.62 -0.08,0.59 -0.09,0.58 -0.11,0.56 -0.12,0.55 -0.15,0.53 -0.17,0.51 -0.19,0.5 -0.21,0.49 -0.24,0.48 -0.26,0.47 -0.14,0.24 -0.15,0.23 c -1.07,1.6 -3.24,2.99 -6.03,2.99 l 0,-0.97 c 1.89,0 3.7,-1.15 4.33,-3.18 0.56,-1.88 0.59,-4.39 0.59,-7.42 0,-2.58 0,-5.17 -0.45,-7.36 -0.7,-3.17 -3.07,-3.94 -4.47,-3.94 l 0,0 c -1.6,0 -3.73,0.94 -4.43,3.8 -0.49,2.06 -0.49,4.92 -0.49,7.5 0,2.54 0,5.19 0.53,7.11 0.73,2.76 2.96,3.49 4.39,3.49 l 0,0.97 c -8.09,0 -8.09,-9.52 -8.09,-12.03 0,-2.51 0,-11.82 8.09,-11.82 8.09,0 8.09,9.31 8.09,11.82 z"
           id="path20840"
           inkscape:connector-curvature="0"
           style="fill:#000000;stroke-width:0" /></g>    </g>
    <g
       id="g21102"
       transform="translate(-1708.6146,629.83011)">
      <g
         word-spacing="normal"
         letter-spacing="normal"
         font-size-adjust="none"
         font-stretch="normal"
         font-weight="normal"
         font-variant="normal"
         font-style="normal"
         stroke-miterlimit="10.433"
         xml:space="preserve"
         transform="matrix(1.0629921,0,0,-1.0629921,-186.02362,789.27165)"
         id="g21104"
         style="font-style:normal;font-variant:normal;font-weight:normal;font-stretch:normal;letter-spacing:normal;word-spacing:normal;text-anchor:start;fill:none;fill-opacity:1;fill-rule:evenodd;stroke:#000000;stroke-linecap:butt;stroke-linejoin:miter;stroke-miterlimit:10.43299961;stroke-dasharray:none;stroke-dashoffset:0;stroke-opacity:1"><path
           id="path21106"
           d="m 481.85,422.94 0.48,0.11 0.47,0.12 0.49,0.14 0.48,0.15 0.48,0.16 0.48,0.18 0.48,0.19 0.48,0.2 0.47,0.22 0.46,0.23 0.46,0.24 0.45,0.25 0.44,0.27 0.43,0.28 0.42,0.29 0.4,0.3 0.39,0.31 0.37,0.32 0.35,0.34 0.34,0.35 0.32,0.35 0.29,0.37 0.28,0.38 0.25,0.39 0.22,0.4 0.2,0.41 0.17,0.42 0.15,0.43 0.11,0.44 0.09,0.45 0.05,0.45 0.01,0.47 c 0,4.29 -4.48,7.47 -11.01,7.47 l -14.19,0 c -1,0 -1.45,0 -1.45,-0.99 0,-0.55 0.45,-0.55 1.4,-0.55 0.1,0 1.04,0 1.89,-0.1 0.9,-0.1 1.34,-0.15 1.34,-0.8 0,-0.2 -0.04,-0.35 -0.2,-0.94 l -6.67,-26.75 c -0.5,-1.95 -0.6,-2.35 -4.53,-2.35 -0.9,0 -1.35,0 -1.35,-0.99 0,-0.55 0.6,-0.55 0.7,-0.55 l 12.6,0 c 0.4,0 1,0 1,1 0,0.54 -0.45,0.54 -1.39,0.54 -1.85,0 -3.24,0 -3.24,0.9 0,0.3 0.09,0.55 0.15,0.85 l 3.28,13.2 5.93,0 -0.05,1.1 -5.58,0 3.24,13 c 0.3,1.19 0.45,1.69 1.39,1.84 0.45,0.05 2.05,0.05 3.04,0.05 3.54,0 9.07,0 9.07,-4.93 0,-1.7 -0.8,-5.14 -2.74,-7.08 -1.3,-1.29 -3.94,-2.88 -8.42,-2.88 l 0.05,-1.1 c 4.54,0 5.43,-2.79 5.43,-4.53 0,-0.75 -0.4,-2.3 -0.7,-3.44 -0.35,-1.4 -0.79,-3.24 -0.79,-4.23 0,-5.39 5.97,-5.39 6.62,-5.39 4.24,0 5.98,5.03 5.98,5.73 0,0.6 -0.55,0.6 -0.6,0.6 -0.45,0 -0.55,-0.35 -0.65,-0.7 -1.24,-3.68 -3.38,-4.53 -4.53,-4.53 -1.64,0 -1.99,1.1 -1.99,3.04 0,1.54 0.3,4.08 0.5,5.68 0.1,0.69 0.2,1.64 0.2,2.34 0,3.83 -3.34,5.38 -4.69,5.88 z"
           inkscape:connector-curvature="0"
           style="fill:#000000;stroke-width:0" /><path
           id="path21108"
           d="m 505.68,446.18 0,0.04 0,0.04 0,0.04 0,0.04 0,0.04 0,0.04 0,0.03 0,0.04 -0.01,0.03 0,0.03 0,0.04 0,0.03 -0.01,0.02 0,0.03 0,0.03 -0.01,0.03 0,0.02 0,0.02 -0.02,0.05 -0.01,0.04 -0.01,0.04 -0.02,0.03 -0.02,0.03 -0.02,0.03 -0.03,0.03 -0.02,0.02 -0.03,0.02 -0.04,0.02 -0.03,0.01 -0.04,0.01 -0.05,0.02 -0.05,0 -0.02,0.01 -0.03,0 -0.03,0.01 -0.02,0 -0.03,0 -0.03,0 -0.04,0 -0.03,0.01 -0.03,0 -0.04,0 -0.03,0 -0.04,0 -0.04,0 -0.04,0 -0.04,0 -0.04,0 -0.05,0 -0.04,0 c -2.24,-2.19 -5.41,-2.23 -6.84,-2.23 l 0,-1.25 c 0.84,0 3.14,0 5.06,0.97 l 0,-17.78 c 0,-1.15 0,-1.61 -3.49,-1.61 l -1.33,0 0,-1.25 12.45,0 0,1.25 -1.32,0 c -3.49,0 -3.49,0.46 -3.49,1.61 z"
           inkscape:connector-curvature="0"
           style="fill:#000000;stroke-width:0" /></g>    </g>
  </g>
</svg>
